<svg width="95" height="48" viewBox="0 0 95 48" fill="none" xmlns="http://www.w3.org/2000/svg">
<path d="M49.0893 10.4193C48.3435 13.398 28.3641 11.2058 25.277 11.6951C17.2289 12.9707 11.5807 21.3465 12.5577 29.1505C13.6546 37.9125 43.9703 35.6849 49.3217 35.2397C59.5867 34.3855 69.8041 30.6291 78.9419 25.961C83.5422 23.6109 91.4541 19.7492 93.4616 14.5947C97.3421 4.63146 79.1806 1.31711 73.0759 1.08267C56.7364 0.455169 45.215 3.2991 31.7818 13.0869C23.6735 18.9949 16.9577 24.9184 10.3507 32.3401C9.05918 33.7909 2.05579 41.7554 1 39.647" stroke="#EFFF70" stroke-width="2" stroke-linecap="round"/>
<path d="M49.0893 17.4193C48.3435 20.398 28.3641 18.2058 25.277 18.6951C17.2289 19.9707 11.5807 28.3465 12.5577 36.1505C13.6546 44.9125 43.9703 42.6849 49.3217 42.2397C59.5867 41.3855 69.8041 37.6291 78.9419 32.961C83.5422 30.6109 91.4541 26.7492 93.4616 21.5947C97.3421 11.6315 79.1806 8.31711 73.0759 8.08267C56.7364 7.45517 45.215 10.2991 31.7818 20.0869C23.6735 25.9949 16.9577 31.9184 10.3507 39.3401C9.05918 40.7909 2.05579 48.7554 1 46.647" stroke="#EFFF70" stroke-linecap="round"/>
</svg>
