<svg width="224" height="68" viewBox="0 0 224 68" fill="none" xmlns="http://www.w3.org/2000/svg">
<path d="M35.88 26L28.56 50H16.84L10.2 26H18.08L22.84 44.4H23.08L28.32 26H35.88ZM36.6937 26H44.2937V50H36.6937V26ZM36.4937 23.6V18H44.4937V23.6H36.4937ZM46.8859 18H54.4859V29.24C55.3659 26.64 57.9259 25.52 62.4859 25.52C69.6459 25.52 71.4459 28 71.4459 38C71.4459 48 69.5659 50.48 62.0859 50.48C57.4059 50.48 54.9659 48.8 54.2859 45V50H46.8859V18ZM54.4859 41.52C54.4859 43.32 56.1259 44.08 58.8859 44.08C63.0059 44.08 63.4459 43.48 63.4459 38C63.4459 32.52 63.0459 31.92 59.3259 31.92C55.9259 31.92 54.4859 33.28 54.4859 36.48V41.52ZM96.4594 42.36C96.2994 48.84 93.8994 50.48 84.4594 50.48C74.6994 50.48 72.2594 48 72.2594 38C72.2594 28 74.6994 25.52 84.4594 25.52C93.9394 25.52 96.4594 27.72 96.6594 36.44V40.16H80.2994C80.4594 44.36 81.2194 44.88 84.4994 44.88C87.6594 44.88 88.4594 44.36 88.4594 42.36H96.4594ZM80.3394 34.56H88.6594C88.5794 31.48 88.0194 31.12 84.4994 31.12C81.5394 31.12 80.6194 31.52 80.3394 34.56ZM122.136 26L114.816 50H103.096L96.4562 26H104.336L109.096 44.4H109.336L114.576 26H122.136ZM132.788 25.52C141.668 25.52 143.908 27.2 143.908 33.84V50H136.308V46.72C135.508 49.28 133.428 50.44 129.628 50.48C122.188 50.72 120.348 49.24 120.348 43.08C120.348 37.24 122.188 35.76 129.508 35.76L136.308 35.72V34.36C136.308 31.44 135.948 31.12 132.708 31.12C129.068 31.12 128.668 31.44 128.748 34.24H121.148V33.4C121.148 27.08 123.468 25.52 132.788 25.52ZM128.348 43.16C128.348 44.92 128.788 45.12 132.708 45.04C135.228 45 136.308 44.2 136.308 42.36V41.32L132.708 41.36C128.788 41.36 128.348 41.52 128.348 43.16ZM167.876 50H160.276V46.24C159.556 49.16 157.396 50.48 153.436 50.48C147.116 50.48 145.556 48.68 145.556 41.52L145.516 26H153.116V39.72C153.116 43.64 153.476 44.08 156.676 44.08C159.156 44.08 160.236 42.84 160.236 39.88L160.276 26H167.876V50ZM181.052 43.2V50H176.692C171.532 50 170.252 48.68 170.292 43.44V18H177.892V41.16C177.892 43 178.212 43.2 181.052 43.2ZM198.647 43.2V50H193.847C186.167 50 184.247 48.4 184.247 41.92V32.4H181.847V26H184.647V20.88H191.847V26H198.247V32.4H191.847V39.96C191.847 42.88 192.127 43.2 194.607 43.2H198.647ZM201.438 42.4H210.638V50H201.438V42.4Z" fill="black"/>
<path d="M35.88 26L28.56 50H16.84L10.2 26H18.08L22.84 44.4H23.08L28.32 26H35.88ZM36.6937 26H44.2937V50H36.6937V26ZM36.4937 23.6V18H44.4937V23.6H36.4937ZM46.8859 18H54.4859V29.24C55.3659 26.64 57.9259 25.52 62.4859 25.52C69.6459 25.52 71.4459 28 71.4459 38C71.4459 48 69.5659 50.48 62.0859 50.48C57.4059 50.48 54.9659 48.8 54.2859 45V50H46.8859V18ZM54.4859 41.52C54.4859 43.32 56.1259 44.08 58.8859 44.08C63.0059 44.08 63.4459 43.48 63.4459 38C63.4459 32.52 63.0459 31.92 59.3259 31.92C55.9259 31.92 54.4859 33.28 54.4859 36.48V41.52ZM96.4594 42.36C96.2994 48.84 93.8994 50.48 84.4594 50.48C74.6994 50.48 72.2594 48 72.2594 38C72.2594 28 74.6994 25.52 84.4594 25.52C93.9394 25.52 96.4594 27.72 96.6594 36.44V40.16H80.2994C80.4594 44.36 81.2194 44.88 84.4994 44.88C87.6594 44.88 88.4594 44.36 88.4594 42.36H96.4594ZM80.3394 34.56H88.6594C88.5794 31.48 88.0194 31.12 84.4994 31.12C81.5394 31.12 80.6194 31.52 80.3394 34.56ZM122.136 26L114.816 50H103.096L96.4562 26H104.336L109.096 44.4H109.336L114.576 26H122.136ZM132.788 25.52C141.668 25.52 143.908 27.2 143.908 33.84V50H136.308V46.72C135.508 49.28 133.428 50.44 129.628 50.48C122.188 50.72 120.348 49.24 120.348 43.08C120.348 37.24 122.188 35.76 129.508 35.76L136.308 35.72V34.36C136.308 31.44 135.948 31.12 132.708 31.12C129.068 31.12 128.668 31.44 128.748 34.24H121.148V33.4C121.148 27.08 123.468 25.52 132.788 25.52ZM128.348 43.16C128.348 44.92 128.788 45.12 132.708 45.04C135.228 45 136.308 44.2 136.308 42.36V41.32L132.708 41.36C128.788 41.36 128.348 41.52 128.348 43.16ZM167.876 50H160.276V46.24C159.556 49.16 157.396 50.48 153.436 50.48C147.116 50.48 145.556 48.68 145.556 41.52L145.516 26H153.116V39.72C153.116 43.64 153.476 44.08 156.676 44.08C159.156 44.08 160.236 42.84 160.236 39.88L160.276 26H167.876V50ZM181.052 43.2V50H176.692C171.532 50 170.252 48.68 170.292 43.44V18H177.892V41.16C177.892 43 178.212 43.2 181.052 43.2ZM198.647 43.2V50H193.847C186.167 50 184.247 48.4 184.247 41.92V32.4H181.847V26H184.647V20.88H191.847V26H198.247V32.4H191.847V39.96C191.847 42.88 192.127 43.2 194.607 43.2H198.647ZM201.438 42.4H210.638V50H201.438V42.4Z" fill="black" fill-opacity="0.2"/>
</svg>
